<?xml version="1.0" standalone="no"?>
<!DOCTYPE svg PUBLIC "-//W3C//DTD SVG 20010904//EN"
 "http://www.w3.org/TR/2001/REC-SVG-20010904/DTD/svg10.dtd">
<svg version="1.0" xmlns="http://www.w3.org/2000/svg"
 width="228.000000pt" height="221.000000pt" viewBox="0 0 228.000000 221.000000"
 preserveAspectRatio="xMidYMid meet">

<g transform="translate(0.000000,221.000000) scale(0.100000,-0.100000)"
fill="#000000" stroke="none">
<path d="M915 2140 c-144 -8 -315 -30 -420 -54 -53 -13 -63 -13 -90 2 -17 9
-65 17 -112 20 -69 4 -89 1 -125 -17 -24 -11 -55 -36 -69 -53 -20 -28 -24 -44
-24 -109 0 -67 4 -83 37 -150 50 -100 107 -174 233 -300 102 -103 104 -107 95
-138 -18 -64 23 -114 91 -109 36 2 47 9 65 35 l21 32 19 -42 c30 -67 111 -185
167 -244 56 -60 149 -130 210 -159 29 -14 36 -22 31 -37 -4 -13 0 -20 15 -24
26 -7 26 -7 1 -41 -30 -41 -36 -94 -15 -147 9 -25 25 -50 36 -55 26 -15 24
-30 -5 -30 -35 0 -43 -20 -16 -40 l22 -17 -27 -21 c-14 -11 -63 -33 -108 -47
-113 -36 -238 -98 -281 -139 -30 -28 -36 -40 -36 -74 l0 -41 63 -20 c75 -23
241 -47 382 -56 116 -7 299 8 437 36 137 27 148 33 148 82 0 33 -6 46 -36 73
-42 40 -166 101 -281 139 -77 25 -133 56 -133 75 0 4 9 10 21 13 29 8 19 31
-14 35 -30 4 -36 17 -12 26 27 10 55 69 55 117 0 33 -7 57 -25 83 -30 44 -30
42 -4 49 15 4 19 11 15 24 -4 14 10 26 66 58 126 71 256 212 328 355 29 59 26
57 54 27 35 -37 96 -38 133 -1 22 22 25 32 20 72 l-5 47 102 105 c121 124 187
210 232 303 70 145 49 253 -58 308 -51 26 -167 26 -226 -1 -40 -18 -47 -18
-125 -5 -157 28 -320 46 -501 55 -99 5 -188 9 -196 8 -8 -1 -78 -4 -155 -8z
m-621 -137 c-4 -10 -9 -36 -12 -57 -12 -101 97 -170 185 -117 17 11 34 17 37
14 3 -4 6 -27 6 -52 0 -59 25 -213 51 -315 11 -43 17 -81 13 -85 -9 -9 -202
195 -274 291 -102 134 -139 233 -110 288 13 24 57 49 89 50 18 0 22 -4 15 -17z
m1790 -24 c25 -28 27 -37 22 -73 -8 -50 -61 -148 -124 -230 -52 -68 -263 -288
-270 -282 -2 3 3 29 12 59 22 77 56 279 56 336 0 56 7 67 31 45 10 -9 35 -18
57 -21 99 -13 172 90 126 179 l-16 31 38 -6 c26 -4 49 -17 68 -38z"/>
</g>
</svg>
