<svg xmlns="http://www.w3.org/2000/svg" xmlns:xlink="http://www.w3.org/1999/xlink" width="1024" zoomAndPan="magnify" viewBox="0 0 768 767.999994" height="1024" preserveAspectRatio="xMidYMid meet" version="1.0"><defs><clipPath id="ebb4dc5df1"><path d="M 10.457031 51.082031 L 757.457031 51.082031 L 757.457031 717.082031 L 10.457031 717.082031 Z M 10.457031 51.082031 " clip-rule="nonzero"/></clipPath></defs><g clip-path="url(#ebb4dc5df1)"><path fill="#ffffff" d="M 389.746094 507.5 L 378.253906 507.5 L 378.253906 398.492188 L 510.382812 398.492188 L 510.382812 409.984375 L 389.746094 409.984375 Z M 92.484375 63.113281 C 53.605469 63.113281 21.996094 94.71875 21.996094 133.644531 L 21.996094 635.503906 C 21.996094 674.425781 53.605469 706.035156 92.484375 706.035156 L 675.46875 706.035156 C 714.394531 706.035156 746.003906 674.425781 746.003906 635.503906 L 746.003906 133.644531 C 746.003906 94.71875 714.394531 63.113281 675.46875 63.113281 Z M 675.46875 717.527344 L 92.484375 717.527344 C 47.273438 717.527344 10.503906 680.757812 10.503906 635.503906 L 10.503906 133.644531 C 10.503906 88.390625 47.273438 51.621094 92.484375 51.621094 L 675.46875 51.621094 C 720.726562 51.621094 757.496094 88.390625 757.496094 133.644531 L 757.496094 635.503906 C 757.496094 680.757812 720.726562 717.527344 675.46875 717.527344 " fill-opacity="1" fill-rule="nonzero"/></g><path fill="#ffffff" d="M 751.792969 203.414062 L 16.207031 203.414062 L 16.207031 191.921875 L 751.792969 191.921875 L 751.792969 203.414062 " fill-opacity="1" fill-rule="nonzero"/><path fill="#ffffff" d="M 751.792969 306.679688 L 16.207031 306.679688 L 16.207031 295.183594 L 751.792969 295.183594 L 751.792969 306.679688 " fill-opacity="1" fill-rule="nonzero"/><path fill="#ffffff" d="M 751.75 409.984375 L 16.25 409.984375 L 16.25 398.492188 L 751.75 398.492188 L 751.75 409.984375 " fill-opacity="1" fill-rule="nonzero"/><path fill="#ffffff" d="M 384 513.25 L 16.25 513.25 L 16.25 501.753906 L 384 501.753906 L 384 513.25 " fill-opacity="1" fill-rule="nonzero"/><path fill="#ffffff" d="M 384 616.511719 L 16.25 616.511719 L 16.25 605.015625 L 384 605.015625 L 384 616.511719 " fill-opacity="1" fill-rule="nonzero"/><path fill="#ffffff" d="M 136.976562 711.78125 L 125.484375 711.78125 L 125.484375 197.667969 L 136.976562 197.667969 L 136.976562 711.78125 " fill-opacity="1" fill-rule="nonzero"/><path fill="#ffffff" d="M 263.363281 711.78125 L 251.867188 711.78125 L 251.867188 197.667969 L 263.363281 197.667969 L 263.363281 711.78125 " fill-opacity="1" fill-rule="nonzero"/><path fill="#ffffff" d="M 389.746094 711.78125 L 378.253906 711.78125 L 378.253906 197.667969 L 389.746094 197.667969 L 389.746094 711.78125 " fill-opacity="1" fill-rule="nonzero"/><path fill="#ffffff" d="M 516.132812 404.238281 L 504.636719 404.238281 L 504.636719 197.667969 L 516.132812 197.667969 L 516.132812 404.238281 " fill-opacity="1" fill-rule="nonzero"/><path fill="#ffffff" d="M 642.515625 404.238281 L 631.023438 404.238281 L 631.023438 197.667969 L 642.515625 197.667969 L 642.515625 404.238281 " fill-opacity="1" fill-rule="nonzero"/><path fill="#ffffff" d="M 424.8125 674.023438 L 415.425781 667.378906 L 472.085938 587.371094 L 530.902344 619.878906 L 590.929688 487.835938 L 656.433594 546.921875 L 714.035156 451.738281 L 723.867188 457.710938 L 659.039062 564.746094 L 594.878906 506.917969 L 536.246094 635.949219 L 475.542969 602.414062 L 424.8125 674.023438 " fill-opacity="1" fill-rule="nonzero"/><path fill="#ffffff" d="M 437.203125 668.679688 C 437.203125 677.390625 430.109375 684.484375 421.398438 684.484375 C 412.644531 684.484375 405.550781 677.390625 405.550781 668.679688 C 405.550781 659.925781 412.644531 652.832031 421.398438 652.832031 C 430.109375 652.832031 437.203125 659.925781 437.203125 668.679688 " fill-opacity="1" fill-rule="nonzero"/><path fill="#ffffff" d="M 489.910156 598.730469 C 489.910156 607.488281 482.773438 614.582031 474.0625 614.582031 C 465.308594 614.582031 458.214844 607.488281 458.214844 598.730469 C 458.214844 589.976562 465.308594 582.929688 474.0625 582.929688 C 482.773438 582.929688 489.910156 589.976562 489.910156 598.730469 " fill-opacity="1" fill-rule="nonzero"/><path fill="#ffffff" d="M 549.265625 626.613281 C 549.265625 635.367188 542.171875 642.417969 533.460938 642.417969 C 524.707031 642.417969 517.613281 635.367188 517.613281 626.613281 C 517.613281 617.859375 524.707031 610.765625 533.460938 610.765625 C 542.171875 610.765625 549.265625 617.859375 549.265625 626.613281 " fill-opacity="1" fill-rule="nonzero"/><path fill="#ffffff" d="M 610.101562 500.183594 C 610.101562 508.9375 603.007812 515.988281 594.25 515.988281 C 585.496094 515.988281 578.449219 508.9375 578.449219 500.183594 C 578.449219 491.429688 585.496094 484.335938 594.25 484.335938 C 603.007812 484.335938 610.101562 491.429688 610.101562 500.183594 " fill-opacity="1" fill-rule="nonzero"/><path fill="#ffffff" d="M 674.257812 551.949219 C 674.257812 560.703125 667.164062 567.796875 658.453125 567.796875 C 649.699219 567.796875 642.605469 560.703125 642.605469 551.949219 C 642.605469 543.195312 649.699219 536.101562 658.453125 536.101562 C 667.164062 536.101562 674.257812 543.195312 674.257812 551.949219 " fill-opacity="1" fill-rule="nonzero"/><path fill="#ffffff" d="M 734.777344 454.746094 C 734.777344 463.457031 727.683594 470.550781 718.929688 470.550781 C 710.21875 470.550781 703.125 463.457031 703.125 454.746094 C 703.125 445.992188 710.21875 438.898438 718.929688 438.898438 C 727.683594 438.898438 734.777344 445.992188 734.777344 454.746094 " fill-opacity="1" fill-rule="nonzero"/><path stroke-linecap="butt" transform="matrix(0.75, 0, 0, 0.75, 284.170477, 196.000674)" fill="none" stroke-linejoin="miter" d="M 0.00186408 1.999102 L 327.678964 1.999102 " stroke="#ffffff" stroke-width="4" stroke-opacity="1" stroke-miterlimit="4"/></svg>