<svg xmlns="http://www.w3.org/2000/svg" xmlns:xlink="http://www.w3.org/1999/xlink" width="1024" zoomAndPan="magnify" viewBox="0 0 768 767.999994" height="1024" preserveAspectRatio="xMidYMid meet" version="1.0"><defs><clipPath id="46e93a0973"><path d="M 68.636719 131 L 699.386719 131 L 699.386719 762.6875 L 68.636719 762.6875 Z M 68.636719 131 " clip-rule="nonzero"/></clipPath><clipPath id="5dd44e77b8"><path d="M 288 5.1875 L 480 5.1875 L 480 100 L 288 100 Z M 288 5.1875 " clip-rule="nonzero"/></clipPath></defs><path fill="#ffffff" d="M 383.996094 493.089844 C 358.722656 493.089844 338.078125 472.445312 338.078125 447.171875 C 338.078125 421.902344 358.722656 401.257812 383.996094 401.257812 C 409.265625 401.257812 429.910156 421.902344 429.910156 447.171875 C 429.910156 472.445312 409.265625 493.089844 383.996094 493.089844 Z M 383.996094 422.4375 C 370.46875 422.4375 359.4375 433.46875 359.4375 446.996094 C 359.4375 460.519531 370.46875 471.554688 383.996094 471.554688 C 397.519531 471.554688 408.554688 460.519531 408.554688 446.996094 C 408.554688 433.46875 397.519531 422.4375 383.996094 422.4375 Z M 383.996094 422.4375 " fill-opacity="1" fill-rule="nonzero"/><path fill="#ffffff" d="M 383.996094 709.140625 C 239.484375 709.140625 122.027344 591.683594 122.027344 447.171875 C 122.027344 302.664062 239.484375 185.207031 383.996094 185.207031 C 528.503906 185.207031 645.960938 302.664062 645.960938 447.171875 C 645.960938 591.503906 528.503906 709.140625 383.996094 709.140625 Z M 383.996094 206.382812 C 251.230469 206.382812 143.382812 314.410156 143.382812 446.996094 C 143.382812 579.582031 251.230469 687.785156 383.996094 687.785156 C 516.757812 687.785156 624.605469 579.757812 624.605469 446.996094 C 624.605469 314.230469 516.757812 206.382812 383.996094 206.382812 Z M 383.996094 206.382812 " fill-opacity="1" fill-rule="nonzero"/><path fill="#ffffff" d="M 383.996094 709.140625 C 239.484375 709.140625 122.027344 591.683594 122.027344 447.171875 C 122.027344 302.664062 239.484375 185.207031 383.996094 185.207031 C 528.503906 185.207031 645.960938 302.664062 645.960938 447.171875 C 645.960938 591.503906 528.503906 709.140625 383.996094 709.140625 Z M 383.996094 206.382812 C 251.230469 206.382812 143.382812 314.410156 143.382812 446.996094 C 143.382812 579.582031 251.230469 687.785156 383.996094 687.785156 C 516.757812 687.785156 624.605469 579.757812 624.605469 446.996094 C 624.605469 314.230469 516.757812 206.382812 383.996094 206.382812 Z M 383.996094 206.382812 " fill-opacity="1" fill-rule="nonzero"/><g clip-path="url(#46e93a0973)"><path fill="#ffffff" d="M 383.996094 762.351562 C 210.121094 762.351562 68.636719 620.867188 68.636719 446.996094 C 68.636719 370.648438 96.222656 296.96875 146.410156 239.664062 C 196.0625 182.890625 264.402344 145.695312 338.792969 135.019531 C 368.691406 130.746094 399.300781 130.746094 429.199219 135.019531 C 503.589844 145.695312 571.929688 182.890625 621.582031 239.664062 C 671.769531 297.148438 699.351562 370.648438 699.351562 446.996094 C 699.351562 620.867188 557.867188 762.351562 383.996094 762.351562 Z M 383.996094 153.171875 C 369.9375 153.171875 355.699219 154.238281 341.816406 156.195312 C 198.199219 176.839844 89.992188 301.953125 89.992188 447.171875 C 89.992188 609.300781 221.867188 741.175781 383.996094 741.175781 C 546.121094 741.175781 677.996094 609.300781 677.996094 447.171875 C 677.996094 301.953125 569.792969 176.839844 426.171875 156.195312 C 412.292969 154.0625 398.054688 153.171875 383.996094 153.171875 Z M 383.996094 153.171875 " fill-opacity="1" fill-rule="nonzero"/></g><path fill="#ffffff" d="M 383.996094 255.859375 C 378.121094 255.859375 373.316406 251.054688 373.316406 245.179688 L 373.316406 195.707031 C 373.316406 189.832031 378.121094 185.027344 383.996094 185.027344 C 389.867188 185.027344 394.671875 189.832031 394.671875 195.707031 L 394.671875 245.179688 C 394.671875 251.230469 389.867188 255.859375 383.996094 255.859375 Z M 383.996094 255.859375 " fill-opacity="1" fill-rule="nonzero"/><path fill="#ffffff" d="M 635.285156 457.671875 L 585.808594 457.671875 C 579.9375 457.671875 575.132812 452.867188 575.132812 446.996094 C 575.132812 441.121094 579.9375 436.316406 585.808594 436.316406 L 635.285156 436.316406 C 641.15625 436.316406 645.960938 441.121094 645.960938 446.996094 C 645.960938 452.867188 641.15625 457.671875 635.285156 457.671875 Z M 635.285156 457.671875 " fill-opacity="1" fill-rule="nonzero"/><path fill="#ffffff" d="M 383.996094 709.140625 C 378.121094 709.140625 373.316406 704.335938 373.316406 698.460938 L 373.316406 648.988281 C 373.316406 643.113281 378.121094 638.308594 383.996094 638.308594 C 389.867188 638.308594 394.671875 643.113281 394.671875 648.988281 L 394.671875 698.460938 C 394.671875 704.335938 389.867188 709.140625 383.996094 709.140625 Z M 383.996094 709.140625 " fill-opacity="1" fill-rule="nonzero"/><path fill="#ffffff" d="M 182.179688 457.671875 L 132.707031 457.671875 C 126.832031 457.671875 122.027344 452.867188 122.027344 446.996094 C 122.027344 441.121094 126.832031 436.316406 132.707031 436.316406 L 182.179688 436.316406 C 188.054688 436.316406 192.859375 441.121094 192.859375 446.996094 C 192.859375 452.867188 188.054688 457.671875 182.179688 457.671875 Z M 182.179688 457.671875 " fill-opacity="1" fill-rule="nonzero"/><path fill="#ffffff" d="M 406.773438 430.800781 C 404.105469 430.800781 401.257812 429.730469 399.300781 427.597656 C 395.207031 423.503906 395.207031 416.742188 399.300781 412.46875 L 518.539062 293.230469 C 522.632812 289.136719 529.394531 289.136719 533.664062 293.230469 C 537.757812 297.324219 537.757812 304.085938 533.664062 308.359375 L 414.425781 427.597656 C 412.292969 429.734375 409.445312 430.800781 406.773438 430.800781 Z M 406.773438 430.800781 " fill-opacity="1" fill-rule="nonzero"/><path fill="#ffffff" d="M 340.394531 156.195312 C 337.902344 156.195312 335.410156 155.308594 333.453125 153.527344 C 331.140625 151.570312 329.714844 148.542969 329.714844 145.519531 L 329.714844 88.746094 C 329.714844 82.875 334.519531 78.070312 340.394531 78.070312 L 427.773438 78.070312 C 433.648438 78.070312 438.453125 82.875 438.453125 88.746094 L 438.453125 145.519531 C 438.453125 148.542969 437.027344 151.570312 434.714844 153.527344 C 432.402344 155.484375 429.199219 156.375 426.171875 156.019531 C 398.410156 152.105469 369.757812 152.105469 341.816406 156.019531 C 341.28125 156.195312 340.75 156.195312 340.394531 156.195312 Z M 383.996094 131.816406 C 395.027344 131.816406 406.0625 132.351562 416.917969 133.59375 L 416.917969 99.425781 L 350.894531 99.425781 L 350.894531 133.417969 C 361.925781 132.351562 372.960938 131.816406 383.996094 131.816406 Z M 383.996094 131.816406 " fill-opacity="1" fill-rule="nonzero"/><g clip-path="url(#5dd44e77b8)"><path fill="#ffffff" d="M 448.242188 99.425781 L 319.925781 99.425781 C 302.84375 99.425781 288.78125 85.542969 288.78125 68.28125 L 288.78125 36.78125 C 288.78125 19.695312 302.664062 5.636719 319.925781 5.636719 L 448.242188 5.636719 C 465.324219 5.636719 479.386719 19.519531 479.386719 36.78125 L 479.386719 68.460938 C 479.207031 85.542969 465.324219 99.425781 448.242188 99.425781 Z M 319.75 26.992188 C 314.410156 26.992188 309.960938 31.265625 309.960938 36.78125 L 309.960938 68.460938 C 309.960938 73.796875 314.230469 78.246094 319.75 78.246094 L 448.0625 78.246094 C 453.402344 78.246094 457.851562 73.976562 457.851562 68.460938 L 457.851562 36.78125 C 457.851562 31.441406 453.582031 26.992188 448.0625 26.992188 Z M 319.75 26.992188 " fill-opacity="1" fill-rule="nonzero"/></g><path fill="#ffffff" d="M 578.15625 214.214844 C 575.488281 214.214844 572.640625 213.148438 570.683594 211.011719 C 566.589844 206.917969 566.589844 200.15625 570.683594 195.882812 L 592.570312 173.992188 C 596.664062 169.902344 603.429688 169.902344 607.699219 173.992188 C 611.792969 178.085938 611.792969 184.851562 607.699219 189.121094 L 585.808594 211.011719 C 583.675781 213.148438 581.003906 214.214844 578.15625 214.214844 Z M 578.15625 214.214844 " fill-opacity="1" fill-rule="nonzero"/><path fill="#ffffff" d="M 629.945312 211.367188 C 621.402344 211.367188 613.039062 208.164062 606.453125 201.757812 L 579.9375 175.238281 C 566.945312 162.25 566.945312 141.25 579.9375 128.433594 L 580.828125 127.542969 C 593.816406 114.554688 614.816406 114.554688 627.632812 127.542969 L 654.148438 154.0625 C 667.140625 167.054688 667.140625 188.054688 654.148438 200.867188 L 653.257812 201.757812 C 646.851562 208.164062 638.308594 211.367188 629.945312 211.367188 Z M 646.675781 193.214844 Z M 604.316406 139.289062 C 601.292969 139.289062 598.265625 140.359375 595.953125 142.671875 L 595.0625 143.5625 C 590.4375 148.1875 590.4375 155.664062 595.0625 160.113281 L 621.582031 186.628906 C 626.207031 191.257812 633.683594 191.257812 638.132812 186.628906 L 639.023438 185.738281 C 643.648438 181.113281 643.648438 173.636719 639.023438 169.1875 L 612.503906 142.671875 C 610.367188 140.359375 607.34375 139.289062 604.316406 139.289062 Z M 604.316406 139.289062 " fill-opacity="1" fill-rule="nonzero"/><path stroke-linecap="butt" transform="matrix(0.75, -0.000000000000000186, 0.000000000000000186, 0.75, 314.555174, 88.08255)" fill="none" stroke-linejoin="miter" d="M -0.000648448 1.999308 L 150.259776 1.999308 " stroke="#ffffff" stroke-width="4" stroke-opacity="1" stroke-miterlimit="4"/></svg>