<svg xmlns="http://www.w3.org/2000/svg" xmlns:xlink="http://www.w3.org/1999/xlink" width="1024" zoomAndPan="magnify" viewBox="0 0 768 767.999994" height="1024" preserveAspectRatio="xMidYMid meet" version="1.0"><defs><clipPath id="7a55e5141b"><path d="M 188.167969 123.261719 L 579.667969 123.261719 L 579.667969 667 L 188.167969 667 Z M 188.167969 123.261719 " clip-rule="nonzero"/></clipPath><clipPath id="0fbefa318d"><path d="M 29.808594 28.375 L 741.558594 28.375 L 741.558594 740.125 L 29.808594 740.125 Z M 29.808594 28.375 " clip-rule="nonzero"/></clipPath><clipPath id="65b8ca7a83"><path d="M 0.808594 0.527344 L 712.558594 0.527344 L 712.558594 712.125 L 0.808594 712.125 Z M 0.808594 0.527344 " clip-rule="nonzero"/></clipPath><clipPath id="a2da205ff3"><rect x="0" width="713" y="0" height="713"/></clipPath></defs><g clip-path="url(#7a55e5141b)"><path fill="#231f20" d="M 492.996094 123.433594 L 486.949219 131.339844 C 481.316406 138.703125 465.757812 157.675781 443.03125 174.375 C 428.15625 185.363281 412.785156 193.429688 397.429688 198.382812 C 395.390625 199 393.378906 199.675781 391.230469 200.214844 C 379.933594 203.191406 368.316406 204.839844 356.011719 206.492188 C 347.421875 207.703125 338.613281 208.886719 329.550781 210.667969 C 306.335938 215.238281 288.25 222.308594 270.953125 233.433594 C 254.242188 244.203125 238.710938 258.703125 223.5625 277.675781 L 222.210938 279.351562 L 206.226562 247.125 C 203.160156 240.75 197.648438 238.480469 193.433594 240.53125 C 187.28125 243.515625 187.023438 248.511719 190.089844 254.886719 L 379.523438 659.863281 C 382.589844 666.238281 390.539062 668.769531 397.882812 665.242188 C 404.882812 661.875 407.949219 654.035156 404.882812 647.660156 L 308.078125 452.480469 L 313.75 445.398438 C 328.039062 427.46875 342.574219 413.878906 358.09375 403.910156 C 374.066406 393.585938 390.804688 387.132812 412.308594 382.875 C 421.011719 381.203125 429.65625 379.96875 438.082031 378.839844 C 450.742188 377.074219 462.773438 375.421875 474.726562 372.25 C 477.015625 371.707031 479.273438 370.976562 481.589844 370.21875 C 489.035156 367.828125 496.480469 364.757812 503.820312 361.070312 C 512.980469 356.464844 522.015625 350.914062 530.886719 344.359375 C 554.828125 326.78125 571.332031 306.65625 577.296875 298.855469 L 579.65625 295.847656 L 492.988281 123.441406 Z M 508.511719 181.804688 L 527.175781 218.933594 C 519.855469 227.890625 506.160156 243.152344 487.554688 257.035156 L 468.785156 219.691406 C 487.082031 206.03125 500.804688 191.09375 508.511719 181.804688 Z M 401.007812 209.894531 C 416.96875 204.78125 432.839844 196.597656 448.152344 185.519531 L 464.886719 218.816406 C 449.910156 229.730469 434.480469 237.820312 418.929688 242.796875 C 417.140625 243.363281 415.460938 243.867188 413.695312 244.351562 L 397.015625 211.160156 C 398.335938 210.769531 399.660156 210.375 401.011719 209.898438 Z M 376.914062 254.117188 C 389.078125 252.460938 400.640625 250.839844 412.042969 247.945312 L 430.789062 285.230469 C 419.769531 288.066406 408.507812 289.597656 396.730469 291.199219 C 388.640625 292.289062 380.300781 293.4375 371.871094 295.105469 L 353.125 257.824219 C 361.195312 256.269531 369.148438 255.175781 376.914062 254.113281 Z M 331.726562 222.546875 C 331.78125 222.523438 331.863281 222.546875 331.917969 222.523438 L 348.570312 255.648438 C 327.503906 259.957031 310.898438 266.40625 295.019531 276.492188 L 278.257812 243.148438 C 294.003906 233.0625 310.519531 226.722656 331.726562 222.546875 Z M 272.195312 354.882812 L 253.511719 317.707031 C 266.347656 302.265625 279.554688 290.144531 293.753906 280.847656 L 312.550781 318.242188 C 298.296875 327.570312 284.980469 339.597656 272.195312 354.882812 Z M 310.253906 430.589844 L 293.820312 397.890625 C 306.65625 382.449219 319.863281 370.332031 334.0625 361.035156 L 350.773438 394.277344 C 336.601562 403.492188 323.289062 415.394531 310.253906 430.59375 Z M 335.328125 356.675781 L 316.527344 319.28125 C 332.359375 309.230469 348.957031 302.777344 370.109375 298.496094 L 388.878906 335.835938 C 367.808594 340.140625 351.207031 346.59375 335.328125 356.675781 Z M 436.601562 366.808594 C 428.011719 368.015625 419.203125 369.199219 410.144531 370.980469 C 410.105469 371 410.0625 371 410.003906 370.980469 L 393.429688 338.011719 C 401.445312 336.480469 409.453125 335.359375 417.21875 334.300781 C 429.410156 332.695312 440.972656 331.078125 452.351562 328.128906 L 468.984375 361.207031 C 458.59375 363.789062 447.855469 365.269531 436.601562 366.800781 Z M 459.234375 322.976562 C 457.445312 323.546875 455.765625 324.046875 454 324.53125 L 435.230469 287.191406 C 436.746094 286.761719 438.316406 286.316406 439.96875 285.75 C 447.191406 283.472656 454.390625 280.460938 461.511719 276.878906 C 469.957031 272.632812 478.269531 267.578125 486.421875 261.652344 L 505.191406 298.996094 C 490.207031 309.90625 474.777344 317.996094 459.230469 322.972656 Z M 525.773438 333.066406 L 509.089844 299.878906 C 527.363281 286.296875 541.082031 271.363281 548.816406 261.992188 L 565.226562 294.644531 C 558.457031 303.046875 544.761719 318.71875 525.769531 333.066406 Z M 525.773438 333.066406 " fill-opacity="1" fill-rule="nonzero"/></g><g clip-path="url(#0fbefa318d)"><g transform="matrix(1, 0, 0, 1, 29, 28)"><g clip-path="url(#a2da205ff3)"><g clip-path="url(#65b8ca7a83)"><path fill="#e61c24" d="M 356.640625 61.785156 C 286.296875 61.785156 221.71875 86.453125 171.058594 127.582031 L 585.503906 542.03125 C 626.636719 491.367188 651.300781 426.789062 651.300781 356.445312 C 651.300781 193.710938 519.378906 61.785156 356.640625 61.785156 Z M 356.640625 651.109375 C 426.984375 651.109375 491.5625 626.441406 542.222656 585.3125 L 127.777344 170.863281 C 86.644531 221.527344 61.980469 286.105469 61.980469 356.445312 C 61.980469 519.183594 193.902344 651.109375 356.640625 651.109375 Z M 356.640625 712.316406 C 160.101562 712.316406 0.773438 552.984375 0.773438 356.445312 C 0.773438 159.90625 160.101562 0.578125 356.640625 0.578125 C 553.179688 0.578125 712.507812 159.90625 712.507812 356.445312 C 712.507812 552.984375 553.179688 712.316406 356.640625 712.316406 " fill-opacity="1" fill-rule="nonzero"/></g></g></g></g></svg>