<?xml version="1.0" standalone="no"?>
<!DOCTYPE svg PUBLIC "-//W3C//DTD SVG 20010904//EN"
 "http://www.w3.org/TR/2001/REC-SVG-20010904/DTD/svg10.dtd">
<svg version="1.0" xmlns="http://www.w3.org/2000/svg"
 width="200.000000pt" height="200.000000pt" viewBox="0 0 200.000000 200.000000"
 preserveAspectRatio="xMidYMid meet">

<g transform="translate(0.000000,200.000000) scale(0.100000,-0.100000)"
fill="#000000" stroke="none">
<path d="M970 1943 c12 -5 14 -24 3 -22 -20 3 -23 -3 -12 -22 8 -15 8 -24 0
-30 -6 -5 -9 -6 -6 -3 9 13 -16 33 -33 27 -15 -6 -15 -5 -3 10 9 11 9 17 2 17
-6 0 -16 -9 -23 -20 -7 -11 -16 -20 -21 -20 -4 0 -5 5 -1 12 5 7 3 8 -5 4 -7
-5 -10 -14 -8 -20 3 -8 -5 -13 -25 -13 -17 0 -36 -7 -43 -16 -7 -9 -14 -14
-17 -11 -3 2 -8 -6 -11 -18 -6 -22 -5 -22 17 3 12 14 30 25 39 23 9 -1 15 2
11 7 -3 5 -1 9 5 9 5 0 13 -4 16 -10 3 -5 11 -10 17 -10 6 0 8 3 5 7 -12 11
15 33 40 33 20 0 24 -4 20 -19 -3 -14 1 -18 17 -17 17 1 23 8 25 31 1 16 3 39
4 49 1 10 -4 20 -11 22 -7 1 -8 0 -2 -3z"/>
<path d="M1010 1933 c0 -6 5 -15 10 -18 6 -4 7 -11 4 -17 -5 -7 -1 -9 9 -5 20
8 22 -4 5 -22 -9 -10 -9 -12 -1 -7 6 3 14 2 18 -4 3 -5 1 -10 -5 -10 -8 0 -9
-7 -5 -17 4 -10 7 -27 7 -37 -1 -15 2 -16 11 -7 9 9 9 16 0 30 -10 15 -9 22 1
30 7 6 15 9 18 6 2 -3 5 2 5 10 0 11 -4 12 -13 4 -8 -6 -14 -6 -18 0 -3 5 -1
11 6 13 8 3 5 12 -10 28 -12 13 -22 20 -22 14 0 -5 -5 -2 -10 6 -6 9 -10 10
-10 3z"/>
<path d="M909 1868 c-6 -21 -5 -38 2 -38 5 0 9 9 9 20 0 16 -7 28 -11 18z"/>
<path d="M997 1838 c2 -18 0 -27 -3 -20 -3 6 -13 12 -22 12 -15 0 -15 -2 -2
-10 13 -9 13 -11 0 -19 -8 -6 -11 -14 -6 -18 5 -4 11 -2 13 5 3 6 9 10 14 6 5
-3 9 0 9 7 0 8 5 7 18 -2 15 -13 16 -12 4 2 -7 9 -12 21 -11 25 3 20 -2 44 -9
44 -5 0 -7 -15 -5 -32z"/>
<path d="M1089 1851 c-8 -9 -13 -23 -11 -30 3 -8 8 -7 18 6 13 16 13 16 6 -7
-4 -14 -7 -35 -6 -48 1 -12 -3 -25 -7 -28 -5 -3 -9 2 -9 11 0 9 -4 14 -9 10
-11 -6 2 -59 18 -79 6 -7 7 -16 3 -21 -4 -4 2 -6 12 -4 11 2 20 12 22 21 1 10
-3 16 -9 15 -8 -1 -12 16 -12 51 0 60 7 78 25 67 9 -6 9 -9 -1 -16 -11 -7 -11
-9 1 -9 13 0 13 -1 0 -11 -12 -8 -11 -9 5 -7 16 2 20 -2 18 -25 -1 -18 2 -27
10 -24 6 2 12 10 13 18 2 32 5 33 19 5 8 -15 12 -32 9 -37 -3 -5 0 -8 8 -7 7
2 12 -2 11 -7 -1 -6 7 -11 18 -11 25 0 24 1 -10 34 -22 20 -27 32 -20 42 7 12
10 11 15 -8 7 -26 66 -62 72 -43 2 6 9 8 14 5 7 -4 8 -2 4 4 -4 7 -13 12 -20
12 -7 0 -23 11 -36 25 -12 13 -27 22 -31 19 -5 -3 -9 1 -9 8 0 9 -3 9 -10 -2
-9 -13 -11 -13 -20 0 -5 8 -10 20 -10 27 0 11 -61 64 -71 62 -2 0 -11 -8 -20
-18z m55 -23 c-3 -4 2 -8 11 -8 11 0 15 -5 12 -14 -3 -7 0 -19 6 -25 8 -8 8
-11 0 -11 -6 0 -16 7 -23 15 -10 12 -10 15 0 15 7 0 2 8 -10 18 -18 14 -19 19
-7 19 9 0 14 -4 11 -9z m122 -89 c24 -26 25 -30 7 -20 -13 6 -27 20 -33 31
-15 28 -8 25 26 -11z m-155 -56 c13 -16 12 -17 -3 -4 -10 7 -18 15 -18 17 0 8
8 3 21 -13z"/>
<path d="M729 1812 c-23 -14 -25 -19 -13 -30 8 -7 14 -8 14 -2 0 5 5 10 11 10
6 0 8 -9 4 -20 -5 -16 -2 -20 14 -20 12 0 21 5 21 11 0 5 -5 7 -12 3 -7 -5 -9
-2 -5 9 4 11 -1 18 -14 22 -20 7 -20 7 -2 21 26 19 13 17 -18 -4z"/>
<path d="M679 1781 c-2 -6 -15 -13 -28 -16 -14 -2 -29 -10 -35 -16 -8 -9 -6
-10 9 -5 20 6 20 6 1 -9 -11 -8 -15 -15 -9 -15 7 0 19 7 27 16 12 12 16 12 16
2 1 -7 8 0 16 15 9 16 13 31 11 34 -3 2 -7 -1 -8 -6z"/>
<path d="M1000 1772 c0 -10 22 -32 32 -32 4 0 8 7 8 16 0 8 -4 12 -10 9 -5 -3
-10 -1 -10 4 0 6 -4 11 -10 11 -5 0 -10 -4 -10 -8z"/>
<path d="M698 1743 c-17 -4 -33 -32 -23 -41 2 -3 12 1 22 9 9 8 14 9 10 2 -5
-7 0 -9 13 -6 12 3 20 12 18 21 -3 17 -15 22 -40 15z"/>
<path d="M570 1725 c-7 -8 -19 -15 -26 -15 -8 0 -14 -5 -14 -11 0 -5 -6 -7
-12 -3 -7 4 -9 3 -5 -2 13 -14 56 -13 50 3 -3 7 5 16 18 21 13 5 18 12 12 15
-6 4 -16 0 -23 -8z"/>
<path d="M963 1669 l-1 -74 8 54 c5 30 5 63 1 74 -4 11 -8 -11 -8 -54z"/>
<path d="M1030 1711 c0 -5 7 -12 16 -15 14 -5 15 -4 4 9 -14 17 -20 19 -20 6z"/>
<path d="M591 1700 c8 -6 7 -9 -2 -12 -8 -3 1 -8 19 -12 38 -9 45 -5 37 16 -3
8 -19 15 -36 15 -16 0 -25 -4 -18 -7z"/>
<path d="M1320 1700 c-9 -6 -10 -10 -3 -10 6 0 15 5 18 10 8 12 4 12 -15 0z"/>
<path d="M474 1674 c-10 -8 -13 -12 -5 -8 10 5 12 3 7 -5 -5 -7 -14 -10 -22
-7 -8 3 -14 1 -14 -5 0 -6 -4 -8 -9 -4 -17 10 -2 -60 16 -72 20 -16 33 -17 33
-3 0 6 -3 9 -7 9 -19 -3 -36 2 -30 8 4 3 2 12 -5 20 -6 7 -8 16 -4 20 3 4 13
-2 22 -13 15 -18 15 -18 5 2 -9 18 -7 23 8 27 10 2 20 14 24 26 6 25 6 25 -19
5z"/>
<path d="M1358 1671 c15 -13 18 -21 10 -24 -10 -4 -10 -6 0 -6 7 -1 10 -6 7
-11 -4 -6 7 -13 23 -16 17 -3 34 -15 39 -27 7 -14 12 -17 17 -9 4 7 2 12 -4
12 -6 0 -8 5 -5 10 3 6 1 10 -5 10 -6 0 -9 4 -6 9 3 4 -6 6 -21 3 -21 -4 -25
-2 -20 10 6 16 -30 58 -49 58 -5 -1 1 -9 14 -19z"/>
<path d="M1017 1650 c3 -14 6 -31 6 -38 0 -9 5 -8 16 4 12 12 13 18 3 21 -6 3
-9 9 -6 14 3 6 11 5 20 -2 9 -7 14 -8 14 -1 0 18 -20 25 -34 12 -11 -8 -16 -8
-20 2 -3 7 -3 2 1 -12z"/>
<path d="M1321 1640 c-1 -15 -6 -31 -12 -37 -13 -13 -2 -36 13 -27 6 4 5 10
-3 15 -10 6 -6 9 14 9 29 0 36 14 13 27 -7 4 -16 15 -19 23 -3 9 -6 5 -6 -10z"/>
<path d="M1055 1609 c-11 -16 -1 -19 13 -3 7 8 8 14 3 14 -5 0 -13 -5 -16 -11z"/>
<path d="M342 1592 c-2 -7 -11 -11 -18 -8 -9 3 -11 -1 -7 -12 5 -14 3 -15 -7
-5 -10 10 -19 9 -42 -5 -15 -9 -28 -20 -28 -25 0 -4 -3 -6 -7 -4 -5 3 -9 -7
-10 -21 l-1 -27 14 28 c8 15 19 25 24 22 5 -3 16 5 24 17 13 18 16 19 16 6 0
-17 -33 -42 -42 -32 -13 13 -15 -26 -2 -43 14 -17 14 -17 7 1 -4 13 -3 17 5
12 7 -4 12 -1 12 8 0 34 120 110 134 84 2 -5 3 -3 2 3 -3 17 -67 17 -74 1z"/>
<path d="M1115 1579 c4 -31 24 -64 33 -54 3 2 -1 11 -8 20 -14 17 -8 31 9 20
17 -10 13 -43 -5 -53 -12 -7 -13 -11 -5 -17 7 -4 18 1 26 11 12 16 12 13 0
-21 -7 -22 -10 -44 -7 -50 3 -5 7 -16 8 -25 9 -55 20 -72 34 -50 5 9 3 25 -8
44 -21 40 -23 75 -5 104 7 12 9 21 3 20 -5 -2 -16 8 -23 22 -7 14 -21 24 -31
23 -11 0 -15 4 -12 13 3 7 1 16 -4 19 -5 3 -7 -9 -5 -26z m74 -186 c6 -12 7
-24 3 -27 -5 -3 -9 0 -9 7 0 7 -4 21 -8 32 -10 25 -2 18 14 -12z"/>
<path d="M1068 1588 c-3 -7 3 -22 14 -32 18 -19 18 -19 7 12 -12 35 -15 38
-21 20z"/>
<path d="M1160 1595 c0 -10 29 -24 34 -17 3 6 -3 12 -14 15 -11 3 -20 4 -20 2z"/>
<path d="M956 1564 c-9 -24 -7 -36 5 -28 7 4 10 1 7 -7 -3 -8 -11 -13 -17 -11
-7 1 -10 -2 -6 -8 10 -17 35 8 35 36 0 28 -16 40 -24 18z"/>
<path d="M1281 1564 c0 -11 3 -14 6 -6 3 7 2 16 -1 19 -3 4 -6 -2 -5 -13z"/>
<path d="M358 1551 c-6 -10 -18 -17 -25 -14 -16 6 -17 -13 -1 -23 6 -4 19 4
30 19 16 22 23 25 39 17 11 -6 19 -7 19 -1 0 9 -23 21 -41 21 -5 0 -14 -9 -21
-19z"/>
<path d="M1045 1550 c-4 -6 -11 -7 -17 -4 -6 4 -8 -1 -6 -12 2 -11 12 -19 24
-20 17 -1 20 4 16 22 -5 27 -8 29 -17 14z"/>
<path d="M1440 1550 c0 -4 6 -13 14 -20 8 -6 12 -19 9 -27 -4 -11 -2 -14 5 -9
17 10 15 0 -5 -31 -22 -34 -27 -107 -7 -124 15 -13 27 -7 30 16 1 8 -5 12 -18
10 -17 -4 -19 -1 -13 23 7 25 12 50 14 77 1 6 5 4 10 -4 6 -9 11 -10 15 -2 4
6 2 11 -4 11 -6 0 -8 5 -5 10 4 6 -1 22 -10 36 -9 13 -14 28 -11 33 3 4 -1 8
-9 8 -8 0 -15 -4 -15 -7z"/>
<path d="M1085 1519 c11 -13 21 -26 22 -28 2 -2 3 2 3 10 0 8 -10 20 -22 28
l-23 14 20 -24z"/>
<path d="M1366 1524 c-4 -11 0 -15 16 -12 27 4 34 23 9 25 -11 1 -22 -5 -25
-13z"/>
<path d="M200 1496 c0 -20 2 -36 4 -36 8 0 12 61 4 66 -4 3 -8 -11 -8 -30z"/>
<path d="M865 1512 c-10 -26 -5 -36 9 -17 14 19 23 17 66 -12 24 -16 24 -16
-2 12 -30 31 -64 40 -73 17z"/>
<path d="M700 1510 c0 -5 23 -10 51 -10 35 0 48 -3 43 -12 -4 -6 -3 -8 3 -5 6
4 19 -3 28 -14 18 -19 18 -20 1 -37 -14 -13 -20 -14 -23 -4 -4 10 -8 10 -19 1
-8 -6 -25 -9 -39 -7 -14 3 -25 2 -25 -2 0 -12 48 -18 58 -8 6 6 12 6 16 -1 7
-11 -8 -15 -54 -12 -18 1 -21 -1 -11 -7 11 -8 11 -11 0 -16 -8 -3 2 -3 21 0
19 4 42 13 51 21 14 11 18 12 22 1 3 -7 6 -3 6 9 2 47 41 35 41 -12 0 -38 -15
-49 -41 -32 -21 13 -29 14 -61 2 -21 -7 -38 -10 -38 -6 0 3 -5 -1 -10 -9 -6
-10 -10 -11 -10 -2 0 6 -5 12 -11 12 -5 0 -8 -4 -5 -8 2 -4 1 -14 -5 -22 -7
-13 -9 -13 -9 0 -1 12 -3 11 -11 -2 -5 -10 -15 -18 -22 -18 -7 0 -6 4 3 10 19
13 8 13 -25 0 -14 -5 -24 -14 -21 -18 3 -5 -4 -16 -15 -25 -18 -16 -23 -14
-20 6 1 5 -3 6 -9 2 -6 -3 -8 -10 -5 -15 3 -4 -4 -10 -15 -13 -11 -3 -20 -12
-20 -21 0 -23 -15 -20 -17 4 -1 11 2 20 7 20 5 0 7 7 3 16 -3 9 0 20 8 24 7 5
10 12 6 16 -12 12 -35 -16 -30 -36 3 -12 -1 -22 -11 -26 -9 -3 -16 -11 -16
-16 0 -6 7 -7 16 -4 14 6 15 4 4 -9 -11 -13 -11 -16 1 -13 18 4 25 -41 8 -56
-9 -8 -10 -8 -5 2 5 7 1 12 -9 12 -9 0 -14 3 -12 8 3 4 -1 12 -8 19 -11 10
-15 10 -18 0 -4 -9 -6 -9 -6 1 -1 14 -31 17 -31 2 0 -5 -5 -10 -11 -10 -5 0
-7 5 -3 11 5 8 1 8 -14 0 -26 -14 -35 -14 -26 0 4 7 1 10 -7 7 -19 -6 -24 -48
-6 -48 23 0 70 -27 56 -32 -8 -3 -2 -14 16 -31 18 -16 33 -23 39 -18 10 8 46
-18 38 -27 -2 -2 0 -7 4 -10 4 -4 3 -1 -1 7 -6 11 -4 13 9 8 10 -4 23 -7 29
-7 7 0 6 -5 -3 -11 -13 -9 -13 -10 0 -6 8 2 14 12 12 22 -2 11 1 14 8 10 7 -5
7 0 -1 13 -7 12 -17 18 -23 15 -5 -3 -6 -1 -2 6 6 9 11 9 22 0 22 -18 16 -2
-7 20 -17 16 -19 26 -14 65 5 30 14 50 26 57 23 12 23 6 8 -57 -9 -36 -9 -48
1 -57 10 -9 11 -9 6 1 -8 14 10 17 19 3 6 -10 44 -9 62 2 6 4 14 3 18 -3 3 -5
11 -10 16 -10 6 0 7 5 3 12 -5 8 -1 9 12 5 18 -7 18 -6 -1 9 -20 16 -20 16 3
11 17 -4 22 -1 22 14 0 17 11 24 33 20 4 0 7 7 7 17 0 13 2 14 9 3 7 -11 11
-10 20 5 10 18 12 17 15 -8 0 -6 7 -13 14 -16 7 -2 10 2 6 12 -7 17 11 22 21
6 7 -11 35 -2 35 12 0 7 -5 6 -13 -1 -14 -11 -27 -5 -27 11 0 5 4 7 9 3 15 -9
24 15 26 69 1 28 5 61 9 74 12 35 31 20 28 -22 -2 -28 1 -36 13 -36 9 0 13 -4
10 -10 -3 -6 1 -7 9 -4 9 3 14 10 11 14 -3 4 2 10 10 14 11 4 13 -2 9 -27 -5
-28 -4 -30 7 -12 14 24 39 45 53 45 6 0 4 -5 -6 -10 -10 -6 -14 -18 -11 -30 7
-26 23 -26 18 0 -2 13 2 20 11 20 17 0 18 19 2 57 -6 15 -10 32 -9 36 0 4 -8
3 -20 -4 -13 -7 -19 -7 -15 -1 4 6 -2 15 -11 21 -10 6 -13 11 -8 11 6 0 17 -6
24 -12 11 -11 13 -10 7 5 -3 10 -6 20 -6 23 0 2 -12 -2 -26 -8 -17 -8 -28 -8
-32 -2 -9 14 -45 27 -37 13 8 -11 -12 -39 -28 -39 -6 0 -3 6 7 13 17 13 17 14
0 28 -16 12 -17 12 -11 -3 11 -29 -9 -21 -51 22 -34 35 -44 40 -85 40 -26 0
-47 -4 -47 -10z m289 -106 c17 -14 35 -23 40 -20 10 7 9 -20 -2 -30 -4 -4 -19
-8 -34 -10 -16 -1 -39 -5 -53 -9 l-25 -7 23 20 c26 23 29 37 6 28 -8 -3 -13
-2 -10 3 3 5 -1 14 -10 21 -12 11 -12 15 -2 21 21 14 35 10 67 -17z m-152 -59
c5 -4 3 -5 -3 -2 -15 8 13 -75 28 -84 7 -4 7 -9 0 -13 -5 -3 -13 1 -16 10 -5
13 -9 14 -21 4 -8 -7 -15 -17 -15 -23 0 -6 7 -2 16 9 14 18 15 18 4 -4 -8 -17
-15 -20 -24 -13 -8 7 -27 3 -64 -15 -29 -14 -52 -27 -52 -30 0 -3 5 -2 10 1 6
3 10 1 10 -5 0 -7 -7 -10 -15 -6 -8 3 -15 1 -15 -4 0 -6 -5 -10 -10 -10 -6 0
-5 7 2 19 9 15 9 28 -1 61 -9 32 -10 45 0 56 18 22 26 17 39 -31 14 -49 15
-50 33 -35 7 6 23 19 37 29 21 16 23 23 14 38 -12 18 -35 21 -66 8 -11 -4 -18
-3 -18 4 0 15 79 51 102 47 10 -1 21 -6 25 -11z m23 -21 c0 -8 -5 -12 -10 -9
-6 4 -8 11 -5 16 9 14 15 11 15 -7z m-230 -25 c0 -5 6 -7 13 -3 9 5 9 4 1 -5
-12 -13 -7 -64 6 -56 5 3 6 -5 3 -17 -4 -19 -3 -20 7 -8 9 12 10 10 4 -10 -4
-14 -14 -30 -23 -37 -14 -10 -18 -4 -34 40 -17 51 -17 52 3 67 16 12 18 18 8
28 -9 9 -9 12 0 12 7 0 12 -5 12 -11z m135 -5 c-20 -16 -20 -16 3 -9 31 9 27
-2 -7 -20 -24 -12 -29 -12 -27 -1 3 19 26 46 40 46 6 0 2 -8 -9 -16z m-176
-100 c-6 -8 -5 -13 5 -17 14 -6 16 -30 3 -43 -6 -7 -11 10 -8 29 0 4 -3 7 -8
7 -5 0 -11 -3 -14 -7 -2 -5 -2 -1 1 7 5 20 10 43 11 55 1 6 5 3 11 -5 5 -9 5
-19 -1 -26z m-202 -21 c0 -8 -6 -12 -14 -8 -8 3 -19 5 -24 5 -20 0 -7 15 14
16 15 1 24 -4 24 -13z m96 -20 c39 -30 46 -47 21 -57 -18 -7 -28 -2 -73 36
-58 49 -10 68 52 21z m197 -10 c0 -3 -6 -3 -14 0 -7 3 -20 0 -27 -6 -11 -10
-11 -9 0 5 11 15 41 15 41 1z m-244 -27 c20 -21 17 -28 -6 -14 -11 7 -20 16
-20 20 0 12 10 9 26 -6z m92 -35 c11 -7 11 -9 -1 -14 -16 -6 -27 0 -27 15 0
10 11 10 28 -1z"/>
<path d="M1217 1499 c4 -15 8 -17 14 -8 8 14 3 29 -11 29 -4 0 -6 -9 -3 -21z"/>
<path d="M887 1489 c7 -7 15 -10 18 -7 3 3 -2 9 -12 12 -14 6 -15 5 -6 -5z"/>
<path d="M1067 1470 c-18 -35 -2 -54 20 -25 7 11 13 13 13 7 0 -7 7 -12 15
-12 12 0 12 3 -2 18 -12 12 -21 15 -26 8 -5 -7 -7 -2 -4 12 7 30 1 28 -16 -8z"/>
<path d="M1269 1498 c-7 -25 -7 -48 1 -53 6 -4 10 7 10 24 0 17 -2 31 -5 31
-3 0 -5 -1 -6 -2z"/>
<path d="M1040 1480 c0 -5 5 -10 10 -10 6 0 10 5 10 10 0 6 -4 10 -10 10 -5 0
-10 -4 -10 -10z"/>
<path d="M306 1464 c-4 -9 -4 -19 -1 -22 2 -3 7 3 11 12 4 9 4 19 1 22 -2 3
-7 -3 -11 -12z"/>
<path d="M1191 1464 c0 -11 3 -14 6 -6 3 7 2 16 -1 19 -3 4 -6 -2 -5 -13z"/>
<path d="M216 1455 c-3 -9 -2 -24 3 -33 4 -9 6 -23 3 -31 -2 -8 0 -11 6 -7 5
3 9 22 7 42 -4 42 -10 51 -19 29z"/>
<path d="M640 1409 c0 -31 4 -48 10 -44 6 3 10 26 10 51 0 24 -4 44 -10 44 -5
0 -10 -23 -10 -51z"/>
<path d="M1476 1418 c-10 -38 -6 -45 8 -13 12 28 13 29 18 7 3 -12 2 -22 -3
-22 -4 0 -6 -7 -2 -16 5 -14 7 -14 15 -1 9 17 -6 67 -21 67 -5 0 -11 -10 -15
-22z"/>
<path d="M1112 1413 c-7 -10 -10 -12 -7 -5 4 7 0 12 -9 12 -10 0 -13 -6 -10
-15 7 -17 34 -21 34 -4 0 5 4 7 10 4 6 -3 7 1 4 9 -8 20 -6 20 -22 -1z"/>
<path d="M1220 1405 c0 -8 5 -15 10 -15 6 0 10 7 10 15 0 8 -4 15 -10 15 -5 0
-10 -7 -10 -15z"/>
<path d="M840 1390 c0 -5 5 -10 11 -10 5 0 7 5 4 10 -3 6 -8 10 -11 10 -2 0
-4 -4 -4 -10z"/>
<path d="M1126 1381 c-3 -5 1 -11 9 -15 8 -3 15 -1 15 4 0 13 -18 22 -24 11z"/>
<path d="M264 1357 c4 -35 14 -47 39 -47 21 1 21 1 4 15 -13 9 -17 20 -12 34
5 16 2 21 -13 21 -15 0 -20 -6 -18 -23z"/>
<path d="M541 1358 c-1 -21 7 -22 29 -7 13 9 13 10 -2 6 -9 -3 -19 -1 -22 6
-2 7 -5 4 -5 -5z"/>
<path d="M1520 1356 c0 -8 4 -17 9 -20 5 -4 7 3 4 14 -6 23 -13 26 -13 6z"/>
<path d="M490 1350 c0 -6 7 -10 15 -10 8 0 15 2 15 4 0 2 -7 6 -15 10 -8 3
-15 1 -15 -4z"/>
<path d="M625 1350 c6 -9 -1 -11 -47 -14 -9 -1 -20 -5 -25 -10 -4 -5 -3 -6 4
-2 6 3 14 2 17 -3 4 -5 19 -3 36 6 17 8 28 19 25 24 -4 5 -8 9 -11 9 -3 0 -2
-4 1 -10z"/>
<path d="M1130 1335 c12 -32 13 -48 2 -41 -5 3 -9 -9 -9 -27 0 -18 2 -24 4
-14 3 9 9 17 14 17 5 0 8 6 7 13 -2 6 4 11 12 9 12 -3 12 -1 3 9 -6 6 -9 17
-6 24 2 8 -5 18 -16 25 -19 10 -20 9 -11 -15z"/>
<path d="M235 1340 c3 -5 8 -10 11 -10 2 0 4 5 4 10 0 6 -5 10 -11 10 -5 0 -7
-4 -4 -10z"/>
<path d="M1188 1332 c7 -5 10 -17 6 -28 -5 -16 -4 -16 5 -4 16 22 13 40 -6 40
-13 0 -15 -2 -5 -8z"/>
<path d="M1252 1318 c-16 -16 -15 -29 2 -22 16 6 30 34 18 34 -5 0 -13 -5 -20
-12z"/>
<path d="M240 1310 c0 -6 5 -10 10 -10 6 0 10 -7 10 -16 0 -8 5 -12 10 -9 6 3
10 -2 10 -11 0 -10 3 -14 7 -11 9 9 -16 55 -33 61 -8 3 -14 1 -14 -4z"/>
<path d="M1080 1311 c0 -5 7 -11 15 -15 9 -3 15 0 15 9 0 8 -7 15 -15 15 -8 0
-15 -4 -15 -9z"/>
<path d="M1525 1283 c2 -20 7 -39 11 -42 4 -3 4 8 0 24 -6 28 -5 29 9 11 8
-11 15 -15 15 -9 0 7 -5 15 -10 18 -6 4 -8 10 -5 15 3 4 -2 10 -10 14 -12 4
-14 -2 -10 -31z"/>
<path d="M896 1294 c-3 -9 -6 -17 -6 -19 0 -6 30 1 37 10 5 4 2 5 -6 0 -11 -6
-13 -4 -8 8 3 10 2 17 -2 17 -5 0 -12 -7 -15 -16z"/>
<path d="M1482 1293 c2 -11 -6 -22 -19 -28 -27 -12 -31 -45 -5 -45 26 1 51 41
41 68 -10 26 -21 29 -17 5z m-2 -43 c0 -5 -5 -10 -11 -10 -5 0 -7 5 -4 10 3 6
8 10 11 10 2 0 4 -4 4 -10z"/>
<path d="M990 1289 c0 -5 5 -7 10 -4 6 3 10 8 10 11 0 2 -4 4 -10 4 -5 0 -10
-5 -10 -11z"/>
<path d="M1220 1279 c0 -5 -5 -7 -11 -3 -7 4 -10 1 -7 -6 7 -22 24 -22 25 0 1
11 0 20 -3 20 -2 0 -4 -5 -4 -11z"/>
<path d="M1236 1258 c-20 -23 -23 -33 -15 -51 l10 -22 -5 23 c-2 12 0 22 4 22
5 0 12 10 16 22 l6 21 15 -24 c13 -23 14 -23 8 -1 -4 13 -2 22 4 22 6 0 11 4
11 8 0 18 -30 7 -54 -20z"/>
<path d="M301 1273 c0 -4 4 -17 9 -28 8 -19 9 -19 9 2 1 12 -3 25 -9 28 -5 3
-10 3 -9 -2z"/>
<path d="M1160 1275 c0 -5 5 -17 10 -25 5 -8 10 -10 10 -5 0 6 -5 17 -10 25
-5 8 -10 11 -10 5z"/>
<path d="M900 1248 c0 -8 6 -23 14 -34 14 -18 15 -17 12 11 -3 29 -26 49 -26
23z"/>
<path d="M1000 1250 c-13 -9 -13 -11 0 -20 8 -5 25 -10 37 -10 12 0 23 -5 25
-11 2 -6 13 -9 23 -6 19 5 19 5 -2 12 -13 4 -23 15 -23 26 0 21 -34 26 -60 9z"/>
<path d="M948 1242 c-10 -2 -18 -8 -18 -13 0 -13 27 -11 35 2 9 13 4 16 -17
11z"/>
<path d="M1140 1240 c0 -5 5 -10 10 -10 6 0 10 5 10 10 0 6 -4 10 -10 10 -5 0
-10 -4 -10 -10z"/>
<path d="M1247 1226 c-4 -9 -2 -16 4 -16 7 0 9 -12 5 -34 -6 -33 6 -57 19 -36
3 5 1 10 -4 10 -6 0 -11 5 -11 11 0 5 4 8 9 4 5 -3 13 0 17 6 4 8 3 9 -4 5 -8
-5 -12 1 -12 16 0 33 -15 55 -23 34z"/>
<path d="M1171 1221 c-8 -6 -9 -11 -3 -15 6 -3 14 -1 17 5 9 14 2 20 -14 10z"/>
<path d="M1520 1219 c0 -8 13 -13 31 -11 3 1 5 -19 5 -43 -1 -24 2 -41 7 -38
4 2 7 11 7 19 0 8 5 12 10 9 6 -4 9 -14 8 -22 -2 -9 3 -18 9 -20 18 -6 -5 57
-23 64 -8 3 -14 9 -14 15 0 5 5 6 11 2 8 -4 8 -1 1 13 -11 19 -52 29 -52 12z"/>
<path d="M276 1187 c4 -12 8 -31 9 -42 1 -11 4 -27 7 -35 4 -8 6 -22 6 -30 0
-8 3 -26 7 -40 3 -14 8 -36 11 -49 3 -13 12 -37 20 -53 9 -17 11 -27 5 -24 -6
4 -11 2 -11 -3 0 -6 5 -11 11 -11 6 0 8 -8 4 -19 -7 -23 12 -38 28 -22 9 9 8
10 -7 5 -14 -5 -17 -3 -14 7 6 17 29 19 41 4 5 -6 6 -2 3 8 -3 10 -3 30 0 44
l7 26 14 -27 c12 -23 12 -30 1 -43 -12 -15 -11 -15 9 -4 22 11 22 10 13 -14
-10 -26 -4 -55 11 -55 22 0 -1 151 -26 177 -20 19 -23 17 -31 -29 -6 -36 -8
-40 -15 -23 -6 14 -7 9 -3 -15 4 -26 3 -31 -5 -20 -6 8 -11 23 -11 33 0 10 -4
16 -9 13 -12 -8 -21 18 -21 62 l0 35 25 -23 c21 -19 25 -21 25 -7 0 9 -6 17
-14 17 -8 0 -17 7 -20 16 -3 9 -13 14 -20 11 -26 -10 -27 23 -1 49 13 13 19
24 12 25 -7 0 -3 4 8 9 16 7 17 9 3 9 -9 1 -22 9 -27 19 -14 22 -14 -3 -1 -28
7 -13 6 -19 -5 -24 -8 -3 -17 0 -21 6 -4 7 -3 8 4 4 15 -9 15 -3 1 28 -9 19
-9 29 -1 39 8 10 6 13 -9 14 -16 2 -19 -2 -13 -20z"/>
<path d="M1119 1196 c-1 -6 -1 -24 0 -41 0 -16 1 -41 1 -55 0 -25 0 -25 15 -4
10 15 12 30 6 51 -5 16 -5 36 0 45 6 10 4 15 -6 15 -8 0 -16 -5 -16 -11z"/>
<path d="M1467 1172 c3 -20 10 -40 15 -43 5 -3 8 -10 6 -16 -4 -14 53 -60 85
-68 34 -9 36 2 3 15 -16 6 -33 29 -51 67 -14 32 -34 64 -45 71 -17 10 -18 9
-13 -26z"/>
<path d="M1191 1174 c-1 -17 6 -37 14 -44 15 -13 15 -9 -8 60 -3 8 -6 1 -6
-16z"/>
<path d="M1528 1175 c2 -14 8 -23 12 -20 10 6 1 45 -10 45 -4 0 -5 -11 -2 -25z"/>
<path d="M747 1158 c-10 -10 -20 -33 -24 -51 -6 -32 -6 -32 15 -13 12 10 19
23 16 28 -3 4 0 7 7 6 15 -3 25 31 12 42 -4 4 -16 -1 -26 -12z"/>
<path d="M1231 1164 c0 -11 3 -14 6 -6 3 7 2 16 -1 19 -3 4 -6 -2 -5 -13z"/>
<path d="M1348 1158 c-11 -26 1 -47 28 -54 15 -4 24 -13 24 -26 0 -10 5 -16
10 -13 18 11 11 47 -10 52 -11 3 -20 10 -20 15 0 5 4 6 10 3 6 -4 7 1 3 11 -4
11 -8 13 -11 6 -6 -18 -20 -15 -24 6 -3 16 -4 16 -10 0z"/>
<path d="M366 1131 c-3 -5 1 -14 8 -20 12 -10 13 -8 9 8 -6 23 -9 25 -17 12z"/>
<path d="M1256 1111 c-11 -17 6 -43 25 -38 10 3 24 -2 31 -11 10 -12 10 -14 1
-8 -7 4 -13 5 -13 2 0 -3 22 -17 49 -30 28 -13 66 -33 85 -46 20 -12 36 -17
36 -11 0 6 -6 11 -12 12 -7 0 -4 4 7 9 l20 9 -20 1 c-15 1 -12 4 9 11 29 8 54
1 28 -8 -6 -3 -10 -9 -6 -14 3 -5 1 -9 -4 -9 -5 0 -9 -7 -9 -15 0 -8 3 -13 5
-10 3 3 20 -6 38 -20 20 -15 35 -21 39 -15 4 6 11 8 16 5 21 -13 29 7 14 35
-19 37 -45 52 -69 38 -16 -9 -17 -8 -6 12 15 28 6 36 -26 21 -31 -14 -42 -8
-39 21 1 13 0 15 -2 6 -2 -10 -12 -18 -21 -18 -14 0 -15 -2 -3 -9 20 -13 24
-44 4 -37 -8 3 -18 6 -21 6 -4 0 0 5 8 11 13 9 13 10 0 8 -8 -1 -28 1 -43 6
-21 6 -26 12 -22 26 4 11 2 19 -5 19 -6 0 -9 -4 -5 -9 3 -5 0 -13 -6 -17 -7
-4 -9 -3 -5 4 3 6 -1 17 -9 26 -11 11 -12 17 -3 22 6 4 14 2 16 -4 2 -7 8 -12
14 -12 6 0 3 9 -7 20 -20 22 -36 26 -32 9 1 -6 -4 -14 -12 -17 -9 -3 -11 0 -6
8 5 9 4 11 -4 6 -6 -4 -9 -12 -6 -17 4 -5 2 -9 -3 -9 -16 0 -22 13 -11 27 8 9
8 13 1 13 -6 0 -13 -4 -16 -9z m306 -134 c7 4 9 0 5 -10 -4 -11 -2 -14 7 -11
7 3 16 -1 19 -9 4 -10 -1 -13 -20 -9 -19 4 -24 2 -18 -8 4 -7 -6 -2 -24 11
-36 26 -39 39 -11 39 11 0 21 6 21 13 1 6 3 4 6 -6 2 -9 9 -14 15 -10z"/>
<path d="M1159 1106 c-5 -23 -3 -32 11 -39 9 -4 3 -5 -12 -2 -26 5 -33 -2 -29
-27 1 -11 -7 -10 -29 2 -13 7 -21 6 -30 -5 -6 -7 -19 -11 -28 -8 -13 4 -14 3
-4 -5 11 -7 10 -10 -5 -14 -11 -3 -20 -12 -20 -21 0 -8 6 -13 14 -10 7 3 10
10 6 16 -4 6 0 8 10 4 9 -3 16 -3 16 1 -3 20 2 25 12 12 9 -13 10 -12 5 3 -6
19 10 24 17 5 4 -10 6 -10 6 0 1 7 6 10 11 7 6 -4 26 3 46 15 30 19 33 24 22
38 -10 12 -10 14 -1 8 20 -11 53 -16 53 -7 0 5 -8 11 -17 14 -10 2 -26 8 -35
12 -10 4 -19 4 -19 1z"/>
<path d="M345 1090 c-3 -5 -1 -10 4 -10 6 0 11 5 11 10 0 6 -2 10 -4 10 -3 0
-8 -4 -11 -10z"/>
<path d="M607 1088 c-19 -13 13 -29 34 -17 11 6 20 5 24 -1 10 -16 21 -11 22
10 2 17 -4 20 -33 18 -19 -1 -40 -6 -47 -10z"/>
<path d="M403 1079 c3 -9 0 -22 -6 -29 -10 -10 -7 -10 12 0 13 7 20 15 15 19
-5 3 -13 11 -18 16 -6 6 -7 4 -3 -6z"/>
<path d="M1602 1073 c2 -9 10 -18 18 -20 12 -4 13 -3 1 5 -7 5 -10 15 -7 21 4
6 2 11 -4 11 -6 0 -10 -8 -8 -17z"/>
<path d="M780 1055 c0 -8 5 -15 10 -15 6 0 10 7 10 15 0 8 -4 15 -10 15 -5 0
-10 -7 -10 -15z"/>
<path d="M440 1050 c0 -5 5 -10 10 -10 6 0 10 -9 10 -20 0 -11 5 -20 10 -20
13 0 13 27 0 35 -6 4 -8 11 -5 16 4 5 -1 9 -9 9 -9 0 -16 -4 -16 -10z"/>
<path d="M930 1039 c0 -5 -4 -7 -10 -4 -5 3 -10 2 -10 -4 0 -12 66 -9 77 4 5
4 0 5 -9 2 -10 -4 -18 -2 -18 3 0 6 -7 10 -15 10 -8 0 -15 -5 -15 -11z"/>
<path d="M1248 1038 c5 -5 16 -8 23 -6 8 3 3 7 -10 11 -17 4 -21 3 -13 -5z"/>
<path d="M1199 1035 c-1 -3 -2 -10 -3 -16 0 -7 -17 -22 -38 -35 -29 -19 -37
-20 -42 -9 -7 19 -36 8 -36 -14 0 -12 -2 -13 -8 -3 -7 10 -14 8 -34 -7 -14
-11 -29 -17 -34 -13 -5 4 0 -3 10 -15 22 -27 11 -31 -16 -6 -12 10 -18 12 -18
4 0 -7 -4 -10 -9 -7 -11 7 -71 -22 -71 -34 0 -5 -6 -7 -14 -4 -7 3 -21 -2 -30
-11 -9 -9 -19 -14 -24 -12 -12 8 -45 -21 -37 -32 3 -6 11 -9 16 -5 5 3 7 10 4
15 -4 5 4 9 17 9 23 -1 23 -1 -4 -25 -16 -13 -28 -26 -28 -28 0 -2 17 -7 38
-10 20 -3 47 -9 60 -13 16 -5 22 -2 22 9 0 22 -36 40 -63 31 -19 -6 -20 -5 -8
9 7 9 17 14 22 12 4 -3 6 6 3 20 -3 18 -1 23 9 19 8 -3 20 2 27 10 16 20 30
11 30 -20 0 -13 5 -24 10 -24 6 0 10 10 10 23 0 29 18 56 28 41 4 -5 17 -10
29 -10 15 0 20 5 17 20 -6 30 12 43 56 42 23 -1 42 4 45 11 2 7 17 11 34 9 24
-3 29 0 26 15 -2 10 4 23 13 29 9 5 13 10 7 10 -5 0 -3 5 5 10 13 8 12 10 -2
10 -10 0 -19 -2 -19 -5z m-235 -140 c-4 -8 -11 -15 -16 -15 -6 0 -5 6 2 15 7
8 14 15 16 15 2 0 1 -7 -2 -15z"/>
<path d="M966 1012 c-2 -4 4 -9 15 -9 11 -1 17 2 14 8 -7 11 -22 12 -29 1z"/>
<path d="M1143 1008 c-13 -6 -23 -15 -23 -20 0 -14 16 -9 40 12 25 22 18 25
-17 8z"/>
<path d="M1243 1013 c-7 -2 -13 -12 -13 -21 1 -15 2 -15 15 2 9 11 18 15 27
10 7 -5 18 -9 23 -10 6 0 16 -2 23 -2 7 -1 10 -7 7 -12 -4 -7 2 -9 17 -5 16 4
29 1 37 -9 7 -9 16 -14 20 -12 3 2 15 -6 26 -16 20 -20 20 -20 -2 -14 -20 6
-22 5 -15 -13 4 -11 9 -20 12 -21 10 -3 60 24 60 32 0 5 -4 7 -9 4 -5 -4 -23
6 -40 20 -47 39 -158 79 -188 67z m207 -103 c-8 -5 -19 -10 -25 -10 -5 0 -3 5
5 10 8 5 20 10 25 10 6 0 3 -5 -5 -10z"/>
<path d="M790 995 c0 -8 6 -15 14 -15 8 0 16 7 20 15 4 10 -1 15 -14 15 -11 0
-20 -7 -20 -15z"/>
<path d="M1630 990 c-13 -8 -12 -11 5 -24 11 -9 15 -16 9 -16 -7 0 -15 -7 -18
-16 -3 -8 -2 -12 4 -9 13 8 13 -5 0 -25 -6 -10 -10 -11 -10 -2 0 6 -7 12 -16
12 -12 0 -11 -5 7 -19 l24 -19 11 41 c7 26 7 47 2 54 -6 7 -7 17 -3 23 8 12 4
12 -15 0z"/>
<path d="M960 976 c0 -8 5 -18 12 -22 7 -5 9 -2 5 9 -4 11 -2 14 9 10 7 -3 14
0 14 6 0 6 -9 11 -20 11 -11 0 -20 -6 -20 -14z"/>
<path d="M841 966 c-8 -10 -5 -16 15 -24 22 -11 28 -9 52 15 l27 26 -27 -16
c-24 -15 -29 -15 -41 -2 -12 12 -17 12 -26 1z"/>
<path d="M1294 961 c0 -11 10 -24 21 -29 17 -8 23 -5 32 14 12 25 7 29 -16 15
-10 -7 -18 -5 -26 5 -9 13 -11 12 -11 -5z"/>
<path d="M1260 963 c0 -5 5 -15 10 -23 8 -12 10 -11 10 8 0 12 -4 22 -10 22
-5 0 -10 -3 -10 -7z"/>
<path d="M916 944 c-11 -7 -17 -16 -15 -19 3 -3 14 2 25 9 10 8 17 17 14 19
-3 3 -14 -1 -24 -9z"/>
<path d="M809 941 c11 -7 11 -9 0 -14 -10 -4 -9 -6 3 -6 23 -1 32 15 12 23
-23 9 -31 7 -15 -3z"/>
<path d="M1367 943 c-4 -3 -7 -11 -7 -17 0 -6 5 -5 12 2 6 6 9 14 7 17 -3 3
-9 2 -12 -2z"/>
<path d="M1045 930 c-3 -5 1 -10 10 -10 9 0 13 5 10 10 -3 6 -8 10 -10 10 -2
0 -7 -4 -10 -10z"/>
<path d="M1122 911 c-10 -6 -10 -10 3 -21 14 -11 16 -11 13 1 -2 8 3 13 10 11
8 -1 11 2 7 8 -7 12 -16 12 -33 1z"/>
<path d="M1208 900 c-13 -15 -14 -19 -3 -24 8 -3 17 -1 20 5 4 5 12 6 18 3 7
-4 9 -4 5 1 -4 4 -3 14 3 22 18 21 -23 15 -43 -7z"/>
<path d="M1380 906 c0 -8 -5 -18 -12 -22 -7 -4 -8 -3 -4 4 4 7 1 12 -8 12 -10
0 -13 -6 -10 -15 4 -8 12 -15 20 -15 18 0 38 37 24 45 -5 3 -10 -1 -10 -9z"/>
<path d="M1490 914 c0 -14 22 -44 29 -39 5 3 8 -10 7 -27 -1 -24 4 -33 18 -36
10 -2 23 2 30 8 8 10 5 11 -16 6 -39 -9 -35 1 5 14 l32 10 -32 -5 c-18 -2 -33
0 -33 5 0 6 12 10 26 10 14 0 23 4 19 10 -3 5 -12 7 -21 3 -8 -3 -14 -2 -13 3
4 21 -2 25 -18 13 -15 -12 -16 -12 -11 3 4 10 1 19 -8 22 -8 3 -14 3 -14 0z"/>
<path d="M805 900 c3 -5 15 -10 25 -10 10 0 22 5 25 10 4 6 -7 10 -25 10 -18
0 -29 -4 -25 -10z"/>
<path d="M1654 897 c-3 -9 -4 -22 -1 -29 3 -8 6 -5 7 7 2 17 3 16 9 -4 4 -14
13 -26 21 -29 9 -2 11 0 5 5 -5 4 -12 17 -13 28 -5 29 -20 41 -28 22z"/>
<path d="M724 881 c3 -5 -8 -14 -24 -21 -16 -7 -27 -16 -24 -21 3 -5 0 -9 -5
-9 -6 0 -11 5 -11 11 0 5 -4 7 -10 4 -14 -9 -13 8 2 23 7 7 9 12 4 12 -12 0
-36 -27 -29 -34 8 -8 -18 -37 -28 -30 -5 3 -6 -3 -2 -12 5 -13 3 -16 -9 -11
-20 7 -102 -24 -105 -40 -1 -6 4 -14 13 -17 8 -3 12 -2 9 4 -9 14 41 43 64 35
10 -3 22 -1 26 5 3 6 10 8 14 5 4 -2 23 7 41 20 18 13 38 21 43 18 6 -4 8 0 4
10 -6 17 19 32 28 17 7 -11 33 -3 56 17 9 7 19 10 24 6 4 -5 5 -2 1 5 -4 6
-25 12 -47 12 -22 0 -38 -4 -35 -9z m-64 -55 c0 -2 -7 -6 -15 -10 -8 -3 -15
-1 -15 4 0 6 7 10 15 10 8 0 15 -2 15 -4z"/>
<path d="M495 870 c-4 -6 7 -10 29 -10 45 0 55 15 11 18 -18 2 -36 -2 -40 -8z"/>
<path d="M1430 848 c0 -4 7 -8 15 -8 8 0 15 4 15 8 0 5 -7 9 -15 9 -8 0 -15
-4 -15 -9z"/>
<path d="M373 834 c-5 -13 -7 -13 -15 -2 -5 8 -6 2 -2 -17 10 -49 13 -55 29
-55 9 0 13 5 10 10 -4 6 -11 7 -17 4 -8 -5 -9 -1 -5 10 4 10 7 27 7 37 0 13 4
18 12 13 7 -4 8 -3 4 4 -10 16 -15 15 -23 -4z"/>
<path d="M1606 838 c4 -5 0 -14 -7 -19 -11 -7 -11 -9 -1 -9 7 0 10 -5 7 -10
-5 -8 -12 -7 -23 2 -13 11 -15 11 -10 -4 4 -9 1 -19 -7 -22 -9 -3 -12 0 -8 10
3 7 0 14 -7 14 -6 0 -9 -4 -6 -9 10 -16 -22 -20 -35 -5 -8 10 -16 11 -22 5 -5
-5 -15 -7 -22 -5 -7 3 -16 1 -20 -5 -4 -7 1 -8 12 -4 17 6 17 5 -1 -15 -24
-28 -13 -29 12 -2 19 20 58 18 46 -2 -3 -5 -12 -7 -20 -4 -8 3 -11 0 -7 -10 4
-11 9 -12 19 -3 8 6 14 8 14 4 0 -4 20 5 45 19 25 15 45 23 45 19 0 -4 7 3 16
15 15 21 42 32 29 12 -3 -6 1 -7 9 -4 21 8 20 11 -5 24 -30 16 -61 21 -53 8z
m24 -13 c0 -8 -4 -15 -10 -15 -5 0 -7 7 -4 15 4 8 8 15 10 15 2 0 4 -7 4 -15z
m-80 -59 c0 -2 -7 -7 -16 -10 -8 -3 -12 -2 -9 4 6 10 25 14 25 6z"/>
<path d="M522 834 c13 -13 -13 -46 -30 -39 -13 5 -14 4 -5 -6 9 -9 18 -8 37 5
30 19 33 31 9 40 -10 4 -14 4 -11 0z"/>
<path d="M766 821 c-3 -5 1 -11 9 -15 8 -3 15 -1 15 4 0 13 -18 22 -24 11z"/>
<path d="M1448 803 c7 -3 16 -2 19 1 4 3 -2 6 -13 5 -11 0 -14 -3 -6 -6z"/>
<path d="M705 790 c-4 -6 -14 -9 -23 -8 -11 2 -17 -3 -16 -14 1 -14 -4 -17
-28 -13 -20 4 -27 2 -23 -5 4 -6 1 -11 -6 -9 -24 3 -39 -1 -39 -9 0 -10 36 -9
46 1 12 12 26 8 18 -5 -4 -6 3 -4 17 5 28 20 52 22 25 2 -17 -13 -17 -14 5
-13 13 1 32 8 41 16 9 8 22 11 29 6 8 -4 10 -3 5 4 -5 8 1 12 16 13 13 0 17 3
11 6 -7 2 -29 -1 -49 -7 -28 -9 -38 -9 -47 0 -9 9 -8 11 7 8 12 -2 20 3 21 15
4 19 -1 22 -10 7z"/>
<path d="M397 746 c-18 -14 -19 -36 -3 -48 14 -10 37 2 29 16 -4 7 -1 6 9 -2
13 -10 18 -9 29 5 10 12 11 15 1 9 -15 -9 -45 12 -36 25 8 13 -8 10 -29 -5z
m13 -28 c0 -18 -2 -20 -9 -8 -6 8 -7 18 -5 22 9 14 14 9 14 -14z"/>
<path d="M796 733 c-3 -3 -3 -10 0 -14 7 -12 34 -11 34 0 0 11 -26 22 -34 14z"/>
<path d="M1436 726 c-22 -10 -25 -14 -12 -19 9 -4 16 -2 16 4 0 6 3 8 8 6 4
-3 13 1 20 9 15 17 7 17 -32 0z"/>
<path d="M532 717 c-12 -7 -19 -17 -15 -22 4 -4 1 -6 -9 -2 -19 7 -57 -18 -45
-30 5 -4 14 -1 20 8 13 18 27 9 40 -25 6 -14 10 -16 22 -6 11 9 14 8 12 -9 -1
-12 -6 -21 -12 -21 -15 -1 16 -16 45 -24 21 -5 21 -4 -5 10 l-30 15 28 -4 c21
-3 25 -1 17 9 -8 9 -7 14 2 17 7 2 4 3 -6 1 -11 -2 -25 5 -32 14 -16 20 -18
46 -4 37 6 -3 10 -1 10 4 0 6 -5 11 -11 11 -6 0 -9 7 -5 15 6 18 7 18 -22 2z
m12 -32 c-6 -16 -24 -21 -24 -7 0 11 11 22 21 22 5 0 6 -7 3 -15z"/>
<path d="M858 723 c7 -3 16 -2 19 1 4 3 -2 6 -13 5 -11 0 -14 -3 -6 -6z"/>
<path d="M1288 713 c7 -3 16 -2 19 1 4 3 -2 6 -13 5 -11 0 -14 -3 -6 -6z"/>
<path d="M1346 709 c3 -5 -11 -16 -30 -24 -20 -9 -36 -18 -36 -21 0 -3 5 -2
10 1 6 3 10 1 10 -4 0 -6 -5 -11 -12 -11 -6 0 -9 -2 -6 -5 9 -9 38 7 38 21 0
8 5 14 11 14 5 0 7 -5 4 -11 -4 -5 10 -3 30 5 21 9 40 16 43 16 3 0 2 4 -3 9
-14 13 -67 22 -59 10z m32 -20 c-7 -5 -19 -9 -27 -9 -11 0 -11 3 -1 14 6 8 18
12 27 9 12 -5 12 -7 1 -14z"/>
<path d="M618 683 c7 -3 16 -2 19 1 4 3 -2 6 -13 5 -11 0 -14 -3 -6 -6z"/>
<path d="M1187 683 c-10 -10 -8 -23 4 -23 5 0 8 4 4 9 -3 5 3 12 12 14 14 4
15 5 2 6 -9 0 -19 -2 -22 -6z"/>
<path d="M420 664 c-25 -15 -25 -15 -1 -8 18 5 22 3 16 -7 -5 -8 -5 -11 0 -7
4 4 14 3 21 -3 8 -7 14 -7 19 1 3 5 11 10 16 10 6 0 8 -4 5 -9 -3 -5 1 -11 9
-14 12 -5 12 -2 3 19 -10 22 -13 23 -27 9 -14 -13 -16 -13 -26 4 -9 18 -12 18
-35 5z"/>
<path d="M1250 670 c12 -8 12 -10 -5 -10 -19 -1 -19 -1 -1 -11 15 -9 16 -13 5
-21 -12 -8 -12 -9 0 -6 21 6 24 58 3 58 -15 0 -15 -2 -2 -10z"/>
<path d="M1150 639 c0 -5 6 -7 13 -4 6 4 3 -1 -7 -9 -16 -13 -22 -13 -29 -3
-6 8 -7 7 -4 -4 3 -9 1 -21 -4 -26 -13 -13 31 -15 64 -2 29 12 36 26 12 26 -8
0 -12 -4 -9 -9 3 -4 -3 -5 -13 -1 -15 6 -13 9 11 18 l28 12 -23 6 c-33 9 -39
9 -39 -4z m14 -37 c2 -4 -4 -9 -15 -9 -11 -1 -17 2 -14 8 7 11 22 12 29 1z"/>
<path d="M1221 624 c0 -11 3 -14 6 -6 3 7 2 16 -1 19 -3 4 -6 -2 -5 -13z"/>
<path d="M628 593 c6 -2 12 -11 12 -19 0 -8 4 -14 9 -14 5 0 7 9 4 20 -3 11
-13 20 -22 19 -10 0 -11 -2 -3 -6z"/>
<path d="M670 558 c0 -7 15 -10 36 -7 4 0 10 -4 13 -10 4 -6 16 -12 26 -14 11
-2 34 -11 52 -20 44 -23 55 -21 18 3 -20 14 -25 20 -13 20 9 0 20 -4 23 -10 9
-15 66 -12 85 5 9 8 28 16 43 17 14 1 23 6 21 10 -6 10 -57 -2 -65 -15 -4 -5
-24 -11 -45 -13 -28 -2 -34 0 -24 7 11 8 3 9 -27 6 -24 -3 -43 -1 -43 3 0 4
-10 6 -22 3 -19 -4 -21 -3 -8 7 13 10 13 11 -2 7 -9 -3 -19 -3 -22 1 -10 9
-46 10 -46 0z"/>
<path d="M1025 560 c5 -9 1 -10 -16 -5 -17 4 -20 3 -10 -3 11 -8 9 -11 -10
-18 -13 -4 -31 -7 -40 -5 -9 1 -26 -10 -38 -25 -12 -15 -21 -22 -21 -15 0 14
-27 15 -35 0 -4 -6 -1 -9 6 -8 8 1 22 -1 32 -6 11 -4 27 -1 45 11 15 10 31 17
35 16 5 -1 5 3 1 9 -5 9 -2 10 9 6 10 -3 24 -4 33 0 13 5 13 8 2 15 -10 7 -8
8 7 7 41 -3 56 1 49 13 -5 7 -2 9 8 6 8 -4 21 -2 29 3 10 6 7 9 -13 9 -15 0
-30 -5 -33 -10 -4 -7 -13 -6 -27 1 -16 8 -19 8 -13 -1z m-65 -45 c0 -2 -10
-10 -22 -16 -21 -11 -22 -11 -9 4 13 16 31 23 31 12z"/>
<path d="M841 557 c2 -1 11 -8 20 -15 13 -10 19 -10 27 1 9 10 4 13 -20 15
-18 2 -30 1 -27 -1z"/>
<path d="M1774 446 c-12 -9 -14 -15 -6 -20 7 -4 12 -3 12 3 0 5 10 11 23 13
18 3 19 4 5 10 -9 4 -24 1 -34 -6z"/>
<path d="M1818 415 c-17 -23 -17 -24 3 -30 26 -8 21 -35 -8 -46 -15 -6 -27 -4
-37 6 -17 18 -26 19 -26 5 0 -18 48 -30 76 -20 22 9 25 14 20 38 -4 15 -7 37
-7 50 1 27 0 27 -21 -3z"/>
<path d="M588 363 c-20 -23 -128 -218 -128 -231 0 -5 -6 -15 -14 -21 -11 -9
-15 -8 -20 4 -3 9 -10 14 -15 10 -6 -3 -1 -21 11 -41 11 -19 24 -32 28 -27 15
16 170 300 170 312 0 16 -15 13 -32 -6z"/>
<path d="M764 368 c-5 -7 -11 -76 -14 -153 l-5 -140 -27 0 c-29 1 -47 -22 -24
-31 8 -3 31 -4 52 -2 l39 3 3 159 c2 151 -4 196 -24 164z"/>
<path d="M950 355 c-6 -14 -10 -85 -10 -157 l0 -130 -30 4 c-17 3 -31 0 -34
-8 -7 -19 4 -24 56 -24 l48 0 0 164 c0 163 -9 207 -30 151z"/>
<path d="M216 362 c-8 -14 53 -134 64 -127 6 3 7 -1 4 -10 -4 -8 9 -40 28 -73
19 -32 33 -63 30 -70 -6 -18 -37 -15 -53 6 -24 30 -87 142 -120 214 -12 26
-25 45 -30 43 -10 -7 10 -55 23 -55 5 0 7 -4 3 -9 -3 -5 0 -15 7 -23 7 -7 14
-20 16 -28 2 -8 8 -18 14 -21 5 -3 9 -10 9 -15 -1 -5 4 -16 11 -25 7 -8 14
-22 16 -30 2 -7 7 -16 10 -19 4 -3 8 -12 10 -20 9 -44 32 -60 82 -60 28 0 50
2 50 5 0 3 -18 40 -39 83 -82 163 -129 244 -135 234z"/>
<path d="M1710 355 c0 -22 22 -65 33 -65 6 0 8 -3 5 -6 -6 -5 49 -115 79 -159
19 -28 16 -55 -4 -55 -10 0 -33 14 -52 31 -33 28 -38 30 -114 27 -53 -2 -82
-7 -85 -15 -3 -10 19 -13 88 -13 91 0 91 0 108 -30 15 -27 22 -30 70 -30 28 0
52 3 52 6 0 9 -171 324 -176 324 -2 0 -4 -7 -4 -15z"/>
<path d="M1284 323 c7 -35 8 -72 7 -146 -1 -47 -5 -62 -26 -82 -23 -24 -30
-25 -140 -25 -89 0 -116 -3 -113 -12 3 -9 40 -14 125 -16 108 -2 122 -1 146
18 15 12 31 39 38 63 13 48 6 174 -11 206 -16 30 -33 26 -26 -6z"/>
<path d="M1569 333 c-1 -5 0 -18 1 -30 1 -23 -69 -173 -101 -211 -13 -17 -30
-24 -56 -25 -20 -1 -38 -8 -41 -14 -3 -10 12 -13 55 -13 l58 0 63 120 c62 118
63 120 47 150 -15 30 -24 37 -26 23z"/>
<path d="M1030 318 c0 -5 -5 -6 -12 -2 -7 4 -8 3 -4 -4 4 -7 36 -12 79 -12 44
0 83 -6 101 -15 36 -19 35 -19 29 5 -6 21 -24 26 -130 34 -37 2 -63 0 -63 -6z"/>
<path d="M1647 313 c-7 -6 32 -76 45 -81 5 -2 5 -9 2 -15 -5 -9 -4 -9 5 -1 10
9 6 22 -17 57 -16 26 -32 44 -35 40z"/>
</g>
</svg>
